<svg version="1.0" xmlns="http://www.w3.org/2000/svg" width="48" height="48" viewBox="0 0 36 36"><path d="M11 6.9C10.3 8.2 8.7 9 6.2 9.2l-3.7.3-.3 9.1c-.2 6.9.1 9.4 1.2 10.3.9.8 5.8 1.1 15.7.9l14.4-.3v-20l-3.7-.3c-2.5-.2-4.1-1-4.8-2.3-.9-1.5-2.2-1.9-7-1.9s-6.1.4-7 1.9zM23 8c0 .5-2.2 1-5 1-2.7 0-5-.5-5-1 0-.6 2.3-1 5-1 2.8 0 5 .4 5 1zm8.8 4.2c-1.4 4.3-18.1 6-24.5 2.5C5.5 13.7 4 12.5 4 12c0-.6 5.6-1 14.1-1 10.8 0 14 .3 13.7 1.2zm-21 5.9c2.3.6 4.2 1.7 4.2 2.5 0 1.8 5.6 1.9 6.7.1.4-.8 2.2-1.9 3.8-2.4 1.7-.6 3.8-1.4 4.8-1.8 1.5-.6 1.7 0 1.7 5.4v6.2l-13.7-.3-13.8-.3-.3-5.9c-.2-4.5 0-5.7 1-5.3.7.3 3.2 1.1 5.6 1.8z"/></svg>