<?xml version="1.0" standalone="no"?>
<!DOCTYPE svg PUBLIC "-//W3C//DTD SVG 20010904//EN"
 "http://www.w3.org/TR/2001/REC-SVG-20010904/DTD/svg10.dtd">
<svg version="1.0" xmlns="http://www.w3.org/2000/svg"
 width="36.000000pt" height="36.000000pt" viewBox="0 0 36.000000 36.000000"
 preserveAspectRatio="xMidYMid meet">

<g transform="translate(0.000000,36.000000) scale(0.100000,-0.100000)"
fill="#000000" stroke="none">
<path d="M110 291 c-7 -13 -23 -21 -48 -23 l-37 -3 -3 -91 c-2 -69 1 -94 12
-103 9 -8 58 -11 157 -9 l144 3 0 100 0 100 -37 3 c-25 2 -41 10 -48 23 -9 15
-22 19 -70 19 -48 0 -61 -4 -70 -19z m120 -11 c0 -5 -22 -10 -50 -10 -27 0
-50 5 -50 10 0 6 23 10 50 10 28 0 50 -4 50 -10z m88 -42 c-14 -43 -181 -60
-245 -25 -18 10 -33 22 -33 27 0 6 56 10 141 10 108 0 140 -3 137 -12z m-210
-59 c23 -6 42 -17 42 -25 0 -18 56 -19 67 -1 4 8 22 19 38 24 17 6 38 14 48
18 15 6 17 0 17 -54 l0 -62 -137 3 -138 3 -3 59 c-2 45 0 57 10 53 7 -3 32
-11 56 -18z"/>
</g>
</svg>
